<svg width="1140" height="894" viewBox="0 0 1140 894" fill="none" xmlns="http://www.w3.org/2000/svg">
<path d="M752.527 406.596C747.402 410.013 726.529 442.565 740.567 439.056C754.605 435.546 817.446 440.764 812.321 435.639C807.196 430.514 834.909 412.48 832.822 408.305C830.734 404.13 757.652 403.18 752.527 406.596Z" fill="#FFFEF2"/>
<path d="M740.566 514.225C740.566 546.684 716.648 770.027 716.648 784.15C716.648 798.273 708.107 800.53 740.566 797.817C749.755 797.049 762.775 802.942 769.609 799.526C773.027 797.817 769.609 565.476 769.609 565.476L788.401 568.893C788.401 568.893 790.596 756.816 793.526 756.816C810.609 756.816 805.484 751.691 827.693 755.107C829.449 755.378 827.694 570.602 827.694 570.602L839.653 568.893L851.612 802.942C851.612 802.942 913.113 806.359 916.53 802.942C919.947 799.526 875.529 568.893 873.821 563.768C860.418 523.561 836.975 508.739 805.485 548.393C795.235 529.6 788.401 524.475 769.609 526.184C769.609 526.184 772.106 488.599 769.609 486.891C737.149 464.682 740.566 481.765 740.566 514.225Z" fill="#FFFEF2"/>
<path d="M656.856 483.474L670.523 401.471L692.732 408.305L689.315 548.393C634.647 609.895 639.772 693.606 708.108 748.274C713.767 752.802 717.611 521.058 730.317 433.931C743.023 346.803 627.813 304.093 607.313 500.558C626.178 491.133 637.007 487.28 656.856 483.474Z" fill="#FFFEF2"/>
<path d="M574.822 389.512C574.822 389.512 469.49 837.11 470.641 842.235C472.341 849.798 489.913 836.444 506.521 823.443C519.465 813.309 530.438 814.901 535.53 799.525C535.53 799.525 571.234 570.834 573.114 567.185C602.16 510.808 595.153 663.635 597.035 820.026C578.009 832.609 634.62 845.72 679.038 888.362C723.456 931.003 646.579 681.647 627.786 563.768C624.514 543.243 609.021 519.35 590.198 519.35C584.267 519.35 609.845 375.845 608.99 374.137C603.861 363.886 576.535 387.804 574.822 389.512Z" fill="#FFFEF2"/>
<path d="M554.353 112.754C556.061 121.296 537.267 273.343 537.267 273.343C520.977 281.488 507.858 295.379 497.975 311.709C494.314 317.76 471.841 384.103 477.474 410.015C487.245 454.965 535.56 536.434 535.56 476.64C535.56 461.17 609.021 141.796 620.98 82.0026C622.545 74.1769 615.541 73.021 612.438 75.169C568.02 105.916 559.478 99.0865 554.353 112.754Z" fill="#FFFEF2"/>
<path d="M465.525 669.688L497.985 674.813C497.985 674.813 537.267 570.601 523.6 524.475C519.438 510.43 486.015 503.974 470.64 507.391C434.763 515.363 400.596 644.062 400.596 644.062C374.968 729.481 414.273 758.524 436.483 760.232C463.736 762.329 475.765 738.023 489.432 703.856C492.368 696.517 483.637 697.282 475.765 695.314C467.893 693.346 462.098 688.48 458.681 691.897C455.264 695.314 451.858 708.981 451.858 708.981H436.483L456.983 626.978L475.776 630.395L465.525 669.688Z" fill="#FFFEF2"/>
<path d="M214.381 790.984L236.59 761.941C240.072 755.077 245.133 755.108 248.55 758.524C250.506 760.48 439.89 768.165 458.682 772.192C477.474 776.219 446.723 790.984 439.89 801.234C432.534 804.638 427.931 797.817 421.097 797.817H421.097C414.256 797.817 262.217 797.817 228.05 802.943C193.882 808.068 214.381 790.984 214.381 790.984Z" fill="#FFFEF2"/>
<path d="M322.115 662.855H337.491L363.117 544.976C363.117 544.976 419.63 537.728 417.786 541.559C393.111 592.811 358.596 741.075 323.816 729.482C298.734 721.121 294.679 681.647 294.679 589.394C294.679 582.56 287.844 558.643 303.221 565.476C314.382 570.437 334.074 570.602 334.074 570.602L322.115 662.855Z" fill="#FFFEF2"/>
<path d="M4.25059 328.011C19.626 362.179 146.051 794.401 151.177 797.817C156.302 801.234 157.593 790.921 161.423 785.859C410.847 456.14 274.176 273.343 26.4597 304.093C19.6431 304.94 -11.1248 293.843 4.25059 328.011Z" fill="#FFFEF2"/>
<path d="M356.178 261.383C356.178 261.383 436.472 263.092 438.18 261.383C439.889 259.675 465.515 25.6258 460.39 22.209C455.264 18.7922 158.005 0 158.005 0L212.673 264.8C257.091 266.508 298.415 257.222 299.801 263.092C299.801 263.092 311.76 461.021 316.885 459.556C328.844 456.139 328.844 445.889 347.636 435.639C351.053 433.775 356.178 261.383 356.178 261.383Z" fill="#FFFEF2"/>
<path d="M407.436 469.806C407.436 469.806 416.658 436.333 417.68 435.638C418.702 434.944 455.265 439.055 458.681 442.472C462.098 445.889 445.009 487.898 439.889 493.723C390.345 550.1 364.353 486.89 369.845 410.012C371.554 386.095 381.804 338.26 381.804 338.26C400.596 249.424 487.724 249.424 474.063 355.344C461.341 453.981 462.397 423.68 446.723 423.68C431.048 423.68 404.019 411.721 404.019 411.721C397.179 449.305 393.63 469.104 407.436 469.806Z" fill="#FFFEF2"/>
<path d="M984.865 830.276L950.697 883.236L812.318 256.258C798.651 198.173 798.651 215.257 861.862 225.507C1068.16 258.96 1307.75 546.684 974.615 726.065L984.865 830.276Z" fill="#FFFEF2"/>
<path d="M798.65 295.551C841.359 290.426 778.151 324.594 771.314 341.678C770.631 343.386 609.021 336.552 586.812 338.261C575.905 339.1 605.602 298.968 612.435 295.551C618.878 292.33 790.001 296.589 798.65 295.551Z" fill="#FFFEF2"/>
<path d="M1012.18 741.44C1010.48 741.44 986.575 768.774 986.575 772.191C986.575 779.025 1032.7 772.191 1046.35 773.9C1046.35 773.9 1076.73 744.857 1066.87 743.149C1057.01 741.44 1013.92 741.44 1012.19 741.44H1012.18Z" fill="#FFFEF2"/>
</svg>
